# xmcd
#
# Track frame offsets:
#	150
#	17384
#	34967
#	52504
#	72150
#	86728
#	102684
#	119210
#	137811
#	154456
#	173613
#
# Disc length: 2551 seconds
#
# Revision: 1
# Processed by: cddbd v1.5PL3 Copyright (c) Steve Scherf et al.
# Submitted via: EasyCDDAExtractor 6.5.0.1
#
DISCID=9409f50b
DTITLE=Various Artist - Jacaranda
DYEAR=2003
DGENRE=Blues
TTITLE0=Jacaranda
TTITLE1=Porta do Silencio - Ney Matogrosso
TTITLE2=Tambor dos ateus - Elba Ramalho
TTITLE3=Pedro Joia - Ama Cancao por Acaso - Monica Salmaso
TTITLE4=Sol de Neon - Pedro e a Parede
TTITLE5=Cancao em Braille - Na Ozzetti
TTITLE6=Tanto Mar - Rao Kyao
TTITLE7=A Cor do Canto - Daniela Mercury
TTITLE8=Estrela de Agua - Zelia Duncan
TTITLE9=Calcada Portuguesa - Zeca Baleiro
TTITLE10=Duas Nuvens - Ney Matogrosso
EXTD=
EXTT0=
EXTT1=
EXTT2=
EXTT3=
EXTT4=
EXTT5=
EXTT6=
EXTT7=
EXTT8=
EXTT9=
EXTT10=
PLAYORDER=
